<?xml version="1.0" encoding="UTF-8" standalone="no"?>
<svg
   xmlns:dc="http://purl.org/dc/elements/1.1/"
   xmlns:cc="http://creativecommons.org/ns#"
   xmlns:rdf="http://www.w3.org/1999/02/22-rdf-syntax-ns#"
   xmlns:svg="http://www.w3.org/2000/svg"
   xmlns="http://www.w3.org/2000/svg"
   xmlns:sodipodi="http://sodipodi.sourceforge.net/DTD/sodipodi-0.dtd"
   xmlns:inkscape="http://www.inkscape.org/namespaces/inkscape"
   width="1920"
   height="1080"
   viewBox="0 0 960000 402840"
   version="1.1"
   xml:space="preserve"
   style="clip-rule:evenodd;fill-rule:evenodd;stroke-linejoin:round;stroke-miterlimit:1.41420996"
   id="svg6"
   sodipodi:docname="incloud_wallpaper.svg"
   inkscape:version="0.92.2 2405546, 2018-03-11"
   inkscape:export-filename="/home/lukas/Pictures/Wallpapers/incloud_wallpaper_dracula.png"
   inkscape:export-xdpi="96"
   inkscape:export-ydpi="96"><metadata
   id="metadata12"><rdf:RDF><cc:Work
       rdf:about=""><dc:format>image/svg+xml</dc:format><dc:type
         rdf:resource="http://purl.org/dc/dcmitype/StillImage" /><dc:title></dc:title></cc:Work></rdf:RDF></metadata><defs
   id="defs10" /><sodipodi:namedview
   pagecolor="#ffffff"
   bordercolor="#666666"
   borderopacity="1"
   objecttolerance="10"
   gridtolerance="10"
   guidetolerance="10"
   inkscape:pageopacity="0"
   inkscape:pageshadow="2"
   inkscape:window-width="1680"
   inkscape:window-height="1006"
   id="namedview8"
   showgrid="false"
   units="px"
   inkscape:snap-grids="true"
   showguides="false"
   inkscape:zoom="0.44739196"
   inkscape:cx="1068.8127"
   inkscape:cy="575.60204"
   inkscape:window-x="0"
   inkscape:window-y="21"
   inkscape:window-maximized="0"
   inkscape:current-layer="layer2" />
    
<g
   inkscape:groupmode="layer"
   id="layer1"
   inkscape:label="Layer 1"><rect
     id="rect3717"
     width="960000"
     height="540000"
     x="0"
     y="-68580"
     style="clip-rule:evenodd;fill:#282a36;fill-opacity:1;fill-rule:evenodd;stroke-width:405.74182129;stroke-linejoin:round;stroke-miterlimit:1.41420996" /></g><g
   inkscape:groupmode="layer"
   id="layer2"
   inkscape:label="Layer 2"><g
     style="clip-rule:evenodd;fill:#f8f8f2;fill-opacity:1;fill-rule:evenodd;stroke-linejoin:round;stroke-miterlimit:1.41420996"
     transform="matrix(776.829,0,0,776.37677,-5085358,6818284.2)"
     id="g4">
        <path
   d="m 7204.8742,-8542.6174 c -1.168,-14.593 -13.218,-26.223 -28.169,-26.548 -8.79,-0.191 -16.743,3.569 -22.175,9.647 -3.607,-1.739 -7.632,-2.758 -11.896,-2.853 -15.952,-0.347 -29.167,12.304 -29.514,28.256 0,0.028 10e-4,0.059 0,0.087 -6.565,4.67 -10.918,12.273 -11.108,20.949 -0.318,14.574 11.241,26.65 25.817,26.97 4.118,0.09 8.034,-0.772 11.542,-2.379 -1.649,0.362 -3.365,0.543 -5.128,0.504 -11.943,-0.261 -21.413,-10.152 -21.152,-22.097 0.156,-7.149 3.767,-13.412 9.202,-17.232 0,-0.035 0,-0.071 0,-0.106 0.282,-12.928 10.991,-23.18 23.92,-22.897 3.066,0.066 5.978,0.726 8.639,1.855 4.405,-5.041 10.929,-8.168 18.146,-8.01 11.087,0.241 20.199,8.153 22.393,18.555 10.241,2.687 17.695,12.108 17.455,23.157 -0.281,12.926 -10.99,23.18 -23.919,22.898 -1.121,-0.025 -2.22,-0.134 -3.295,-0.31 -4.153,4.416 -11.451,8.871 -18.976,6.793 -2.912,-0.804 -7.674,-3.198 -8.337,-10.286 -0.798,-8.544 6.848,-14.267 6.848,-14.267 l 8.811,12.992 4.401,-44.062 -41.811,14.576 14.698,5.532 c 0,0 -9.664,8.171 -8.936,18.89 0.334,4.914 1.983,8.942 4.169,12.192 5,7.913 13.725,13.261 23.783,13.479 8.899,0.195 16.944,-3.659 22.379,-9.872 1.373,0.233 2.778,0.371 4.211,0.402 15.952,0.347 29.165,-12.301 29.514,-28.253 0.299,-13.624 -8.888,-25.243 -21.512,-28.562"
   style="fill:#f8f8f2;fill-opacity:1;fill-rule:nonzero"
   id="path2"
   inkscape:connector-curvature="0" />
    </g></g></svg>